Coordinates
version=1
nRows=13
nColumns=36
inDegrees=yes

Units are S.I. units (second, meters, Newtons, ...)
If the header above contains a line with 'inDegrees', this indicates whether rotational values are in degrees (yes) or radians (no).

endheader
time	pelvis_tilt	pelvis_list	pelvis_rotation	pelvis_tx	pelvis_ty	pelvis_tz	hip_flexion_r	hip_adduction_r	hip_rotation_r	knee_angle_r	knee_angle_r_beta	ankle_angle_r	subtalar_angle_r	mtp_angle_r	hip_flexion_l	hip_adduction_l	hip_rotation_l	knee_angle_l	knee_angle_l_beta	ankle_angle_l	subtalar_angle_l	mtp_angle_l	lumbar_extension	lumbar_bending	lumbar_rotation	arm_flex_r	arm_add_r	arm_rot_r	elbow_flex_r	pro_sup_r	arm_flex_l	arm_add_l	arm_rot_l	elbow_flex_l	pro_sup_l
      0.00000000	     -6.17043002	     -0.21246428	      0.40559794	      0.31778433	      0.98136191	     -0.04942798	     -2.92566559	     -2.97403018	     -7.77461415	      0.23537675	      0.00410810	      2.91284879	     -4.44980407	     -4.44419588	      1.90867097	     -3.24012004	      2.29713991	      7.73172117	      0.13494399	      0.02004770	    -12.08725625	     -4.44419588	      0.87643164	     -0.71056164	     -2.21920174	     -7.20466257	    -10.62875107	      6.16805784	     27.91030310	     86.67362404	      1.33869314	    -12.30142862	     12.84670259	     30.45574832	     86.29941959
      0.01666670	     -9.08147983	     -0.28640143	     -0.11969008	      0.31839529	      0.97634009	     -0.04961054	     -0.31548736	     -3.27143549	     -6.89138202	      0.24530257	      0.00428134	      4.40106320	     -1.85799538	     -5.12620362	      4.09684211	     -3.41729361	      3.31312186	      7.08247493	      0.12361251	      0.48556138	    -10.78726279	     -5.12620362	      3.82507949	     -1.16680593	     -2.78782508	    -10.41332214	    -10.99233013	      9.64325270	     34.86281607	     83.91874599	     -0.67248990	    -12.58834733	     16.66159073	     32.16735754	     83.38454602
      0.03333330	    -10.43111356	     -0.02848146	     -0.43195085	      0.31892170	      0.97543573	     -0.04922240	      1.01705723	     -3.62760559	     -5.64096333	      0.24531708	      0.00428159	      5.12096571	     -2.29318596	     -5.35414040	      5.22661096	     -3.13119850	      4.01590166	      6.92682785	      0.12089595	      1.12376161	    -11.47706691	     -5.35414040	      5.13137664	     -1.77552035	     -3.47915393	    -10.50836148	    -10.17393403	      9.30628059	     35.29985154	     82.78018132	     -0.78946719	    -12.47043815	     17.53567250	     30.20634478	     82.26357040
      0.05000000	    -11.41079733	      0.18345340	     -0.72673713	      0.32964862	      0.97283418	     -0.05467262	      1.83891746	     -4.10794827	     -4.84203868	      0.23502130	      0.00410190	      5.46251083	     -1.63473507	     -5.83700850	      5.48024443	     -2.94155404	      4.38017833	      6.02347661	      0.10512950	      1.60927085	    -10.83392274	     -5.83700850	      6.65660450	     -1.97721547	     -3.90902335	    -10.65537291	    -10.04367714	      8.61028380	     35.27268275	     79.96500067	     -1.47383845	    -12.32164905	     17.46176968	     29.41672142	     79.39061916
      0.06666670	    -12.04709143	      0.33901065	     -1.01306178	      0.32976407	      0.97130198	     -0.05436248	      2.33692648	     -4.45880297	     -4.03916260	      0.22684300	      0.00395916	      5.68139372	     -1.78452118	     -6.03228385	      5.67030910	     -2.79182730	      4.46049316	      5.49249103	      0.09586205	      2.21129351	    -10.84246640	     -6.03228385	      7.90253307	     -1.99967224	     -3.98061661	    -10.67402424	    -10.05064851	      8.13178088	     34.62606662	     78.66090345	     -1.86944097	    -11.98767057	     17.26779654	     28.65148499	     77.93320456
      0.08333330	    -12.52991686	      0.44158326	     -1.16559358	      0.32997959	      0.96995004	     -0.05441591	      2.67785915	     -4.74079816	     -3.54728784	      0.23834959	      0.00415999	      5.78412868	     -1.89550910	     -6.25118179	      5.90079727	     -2.72379275	      4.07594269	      5.24325277	      0.09151202	      2.91477372	    -10.43817804	     -6.25118179	      8.73945448	     -1.99870383	     -4.29794107	    -10.67762261	    -10.16492286	      8.18964413	     34.28875733	     77.21402513	     -2.26167653	    -11.85308194	     17.22092506	     28.59513408	     76.44645611
      0.10000000	    -12.80706688	      0.49816427	     -1.31430005	      0.33011643	      0.96936898	     -0.05442716	      2.81294746	     -4.91715863	     -3.16441959	      0.24703748	      0.00431162	      5.73133338	     -1.98439954	     -6.39436823	      6.02534683	     -2.71407411	      3.55063046	      5.04865931	      0.08811573	      3.52730164	    -10.19964351	     -6.39436823	      9.24767186	     -1.97454102	     -4.46415488	    -10.37156096	    -10.31787735	      8.69982786	     33.85473444	     76.10962709	     -2.47850884	    -11.72696103	     17.44915531	     28.40373622	     75.40091822
      0.11666670	    -13.21228595	      0.62966633	     -1.44659709	      0.33041764	      0.96887746	     -0.05454823	      3.16652994	     -5.15884807	     -2.89855462	      0.25207481	      0.00439954	      5.79058596	     -2.02004778	     -6.50097678	      6.33740692	     -2.61929376	      3.03406622	      4.95465551	      0.08647505	      4.16270438	     -9.91790795	     -6.50097678	      9.88495763	     -2.01219643	     -4.58093017	    -10.36317298	    -10.44639599	      9.31996573	     33.63864363	     75.18506746	     -2.79222606	    -11.70032325	     17.75867453	     28.53232102	     74.61873663
      0.13333330	    -13.55018860	      0.73897237	     -1.46554881	      0.33058900	      0.96857669	     -0.05467649	      3.48432933	     -5.36086621	     -2.68818289	      0.25290818	      0.00441408	      5.98175195	     -2.06043199	     -6.54923265	      6.65152455	     -2.53267573	      2.73479743	      4.97404409	      0.08681345	      4.77945976	     -9.74070639	     -6.54923265	     10.29008357	     -2.08825335	     -4.63185486	    -10.38478712	    -10.47673598	      9.42765314	     33.92088490	     74.76911935	     -3.17242386	    -11.71445822	     17.84456436	     28.88461466	     74.27559714
      0.15000000	    -13.25666420	      0.87864474	     -1.61644043	      0.33050450	      0.96911145	     -0.05474698	      3.18275801	     -5.58258049	     -2.37173872	      0.26072827	      0.00455057	      5.96636472	     -2.33920978	     -6.66849215	      6.38854185	     -2.41131770	      2.14288982	      5.17089962	      0.09024922	      5.08476897	     -9.61096303	     -6.66849215	      9.97357886	     -2.16513638	     -4.75466733	     -9.39019131	    -10.47741648	     10.61046349	     32.68185768	     73.49308451	     -2.94238538	    -11.68917117	     18.40101347	     28.18046319	     73.35691708
      0.16666670	    -13.23187586	      0.95043919	     -1.59167706	      0.33046235	      0.96937744	     -0.05499955	      3.10524435	     -5.71570227	     -2.16346556	      0.27221048	      0.00475097	      5.97659247	     -2.51824052	     -6.74201475	      6.53811827	     -2.34885227	      1.78712839	      5.59218252	      0.09760200	      5.48034136	     -9.53710106	     -6.74201475	      9.97553887	     -2.24471969	     -4.87194369	     -8.90777786	    -10.60144031	     11.86503319	     32.11868729	     72.49139206	     -2.89394172	    -11.67489899	     18.99652623	     27.94011743	     72.73908004
      0.18333330	    -13.33634618	      1.05074969	     -1.67599970	      0.33065608	      0.96946887	     -0.05511376	      3.19873653	     -5.85635356	     -1.83348776	      0.28874631	      0.00503957	      5.99843352	     -2.72938275	     -7.01964744	      6.78431791	     -2.26854331	      1.40289322	      5.98260758	      0.10441620	      5.87310917	     -9.42292375	     -7.01964744	     10.20209267	     -2.33903454	     -5.39312189	     -7.81524662	    -11.36117422	     17.59120079	     31.23401399	     64.49101403	     -3.19142491	    -11.87818648	     20.21994145	     27.89776813	     69.71646671
      0.20000000	    -13.26038285	      1.15280272	     -1.72963346	      0.33078946	      0.96973497	     -0.05512452	      3.09693004	     -5.99870891	     -1.56559210	      0.29814876	      0.00520368	      5.76131358	     -2.84067764	     -7.07621831	      6.74664198	     -2.17484828	      1.12493596	      6.22500699	      0.10864687	      5.93381200	     -9.27023184	     -7.07621831	     10.01841484	     -2.38011983	     -5.34328539	     -7.55844300	    -11.28851596	     17.60539545	     31.06308533	     64.24841019	     -3.23792018	    -11.85974021	     20.17684616	     27.91160960	     69.33272448
